<mxfile host="app.diagrams.net" agent="Mozilla/5.0 (Windows NT 10.0; Win64; x64) AppleWebKit/537.36 (KHTML, like Gecko) Chrome/141.0.0.0 Safari/537.36" version="28.2.8">
  <diagram name="페이지-1" id="mD9gSKQ8ZakeRivVLpzu">
    <mxGraphModel dx="2505" dy="914" grid="1" gridSize="10" guides="1" tooltips="1" connect="1" arrows="1" fold="1" page="1" pageScale="1" pageWidth="827" pageHeight="1169" math="0" shadow="0">
      <root>
        <mxCell id="0" />
        <mxCell id="1" parent="0" />
        <mxCell id="e1-5YqOoS67gZk6BZsD_-18" value="&lt;font style=&quot;font-size: 14px;&quot;&gt;영화&lt;/font&gt;" style="rounded=0;whiteSpace=wrap;html=1;" vertex="1" parent="1">
          <mxGeometry x="99" y="160" width="120" height="60" as="geometry" />
        </mxCell>
        <mxCell id="e1-5YqOoS67gZk6BZsD_-19" value="영화 카테고리" style="rounded=0;whiteSpace=wrap;html=1;" vertex="1" parent="1">
          <mxGeometry x="-454.37" y="554" width="120" height="60" as="geometry" />
        </mxCell>
        <mxCell id="e1-5YqOoS67gZk6BZsD_-20" value="리뷰" style="rounded=0;whiteSpace=wrap;html=1;" vertex="1" parent="1">
          <mxGeometry x="-134.63" y="559" width="120" height="60" as="geometry" />
        </mxCell>
        <mxCell id="e1-5YqOoS67gZk6BZsD_-24" value="영화 분류 관계" style="rounded=0;whiteSpace=wrap;html=1;" vertex="1" parent="1">
          <mxGeometry x="-511.5" y="160" width="120" height="60" as="geometry" />
        </mxCell>
        <mxCell id="e1-5YqOoS67gZk6BZsD_-25" value="영화 통계" style="rounded=0;whiteSpace=wrap;html=1;" vertex="1" parent="1">
          <mxGeometry x="295" y="560" width="120" height="60" as="geometry" />
        </mxCell>
        <mxCell id="e1-5YqOoS67gZk6BZsD_-27" value="감독" style="ellipse;whiteSpace=wrap;html=1;" vertex="1" parent="1">
          <mxGeometry x="-150" y="50" width="77.5" height="40" as="geometry" />
        </mxCell>
        <mxCell id="e1-5YqOoS67gZk6BZsD_-28" value="주요 출연진" style="ellipse;whiteSpace=wrap;html=1;" vertex="1" parent="1">
          <mxGeometry x="335" y="170" width="80" height="40" as="geometry" />
        </mxCell>
        <mxCell id="e1-5YqOoS67gZk6BZsD_-29" value="개봉일" style="ellipse;whiteSpace=wrap;html=1;" vertex="1" parent="1">
          <mxGeometry x="295" y="50" width="80" height="40" as="geometry" />
        </mxCell>
        <mxCell id="e1-5YqOoS67gZk6BZsD_-31" value="관람등급" style="ellipse;whiteSpace=wrap;html=1;" vertex="1" parent="1">
          <mxGeometry x="-100" y="140" width="85" height="40" as="geometry" />
        </mxCell>
        <mxCell id="e1-5YqOoS67gZk6BZsD_-32" value="줄거리" style="ellipse;whiteSpace=wrap;html=1;" vertex="1" parent="1">
          <mxGeometry x="335" y="220" width="90" height="50" as="geometry" />
        </mxCell>
        <mxCell id="e1-5YqOoS67gZk6BZsD_-34" value="상영상태" style="ellipse;whiteSpace=wrap;html=1;" vertex="1" parent="1">
          <mxGeometry x="30" y="30" width="95.5" height="40" as="geometry" />
        </mxCell>
        <mxCell id="e1-5YqOoS67gZk6BZsD_-35" value="등록일" style="ellipse;whiteSpace=wrap;html=1;" vertex="1" parent="1">
          <mxGeometry x="-95" y="30" width="90" height="40" as="geometry" />
        </mxCell>
        <mxCell id="e1-5YqOoS67gZk6BZsD_-38" value="" style="endArrow=none;html=1;rounded=0;" edge="1" parent="1" target="e1-5YqOoS67gZk6BZsD_-31">
          <mxGeometry width="50" height="50" relative="1" as="geometry">
            <mxPoint x="100" y="180" as="sourcePoint" />
            <mxPoint x="185" y="120" as="targetPoint" />
          </mxGeometry>
        </mxCell>
        <mxCell id="e1-5YqOoS67gZk6BZsD_-39" value="" style="endArrow=none;html=1;rounded=0;" edge="1" parent="1" target="e1-5YqOoS67gZk6BZsD_-27">
          <mxGeometry width="50" height="50" relative="1" as="geometry">
            <mxPoint x="98" y="180" as="sourcePoint" />
            <mxPoint x="185" y="120" as="targetPoint" />
          </mxGeometry>
        </mxCell>
        <mxCell id="e1-5YqOoS67gZk6BZsD_-40" value="" style="endArrow=none;html=1;rounded=0;" edge="1" parent="1" target="e1-5YqOoS67gZk6BZsD_-21">
          <mxGeometry width="50" height="50" relative="1" as="geometry">
            <mxPoint x="100" y="180" as="sourcePoint" />
            <mxPoint x="185" y="120" as="targetPoint" />
          </mxGeometry>
        </mxCell>
        <mxCell id="e1-5YqOoS67gZk6BZsD_-41" value="" style="endArrow=none;html=1;rounded=0;" edge="1" parent="1" target="e1-5YqOoS67gZk6BZsD_-35">
          <mxGeometry width="50" height="50" relative="1" as="geometry">
            <mxPoint x="100" y="180" as="sourcePoint" />
            <mxPoint x="185" y="120" as="targetPoint" />
          </mxGeometry>
        </mxCell>
        <mxCell id="e1-5YqOoS67gZk6BZsD_-21" value="&lt;u&gt;영화 ID&lt;/u&gt;" style="ellipse;whiteSpace=wrap;html=1;" vertex="1" parent="1">
          <mxGeometry x="-161.5" y="90" width="80" height="40" as="geometry" />
        </mxCell>
        <mxCell id="e1-5YqOoS67gZk6BZsD_-42" value="" style="endArrow=none;html=1;rounded=0;exitX=1;exitY=0.25;exitDx=0;exitDy=0;" edge="1" parent="1" source="e1-5YqOoS67gZk6BZsD_-18" target="e1-5YqOoS67gZk6BZsD_-22">
          <mxGeometry width="50" height="50" relative="1" as="geometry">
            <mxPoint x="135" y="170" as="sourcePoint" />
            <mxPoint x="185" y="120" as="targetPoint" />
          </mxGeometry>
        </mxCell>
        <mxCell id="e1-5YqOoS67gZk6BZsD_-43" value="" style="endArrow=none;html=1;rounded=0;" edge="1" parent="1" target="e1-5YqOoS67gZk6BZsD_-36">
          <mxGeometry width="50" height="50" relative="1" as="geometry">
            <mxPoint x="160" y="160" as="sourcePoint" />
            <mxPoint x="185" y="120" as="targetPoint" />
          </mxGeometry>
        </mxCell>
        <mxCell id="e1-5YqOoS67gZk6BZsD_-44" value="" style="endArrow=none;html=1;rounded=0;exitX=0.5;exitY=0;exitDx=0;exitDy=0;" edge="1" parent="1" source="e1-5YqOoS67gZk6BZsD_-18" target="e1-5YqOoS67gZk6BZsD_-30">
          <mxGeometry width="50" height="50" relative="1" as="geometry">
            <mxPoint x="135" y="170" as="sourcePoint" />
            <mxPoint x="185" y="120" as="targetPoint" />
          </mxGeometry>
        </mxCell>
        <mxCell id="e1-5YqOoS67gZk6BZsD_-36" value="수정일" style="ellipse;whiteSpace=wrap;html=1;" vertex="1" parent="1">
          <mxGeometry x="116" y="60" width="86" height="40" as="geometry" />
        </mxCell>
        <mxCell id="e1-5YqOoS67gZk6BZsD_-45" value="" style="endArrow=none;html=1;rounded=0;exitX=0.5;exitY=0;exitDx=0;exitDy=0;" edge="1" parent="1" source="e1-5YqOoS67gZk6BZsD_-18" target="e1-5YqOoS67gZk6BZsD_-34">
          <mxGeometry width="50" height="50" relative="1" as="geometry">
            <mxPoint x="135" y="170" as="sourcePoint" />
            <mxPoint x="185" y="120" as="targetPoint" />
          </mxGeometry>
        </mxCell>
        <mxCell id="e1-5YqOoS67gZk6BZsD_-46" value="" style="endArrow=none;html=1;rounded=0;" edge="1" parent="1" target="e1-5YqOoS67gZk6BZsD_-33">
          <mxGeometry width="50" height="50" relative="1" as="geometry">
            <mxPoint x="160" y="160" as="sourcePoint" />
            <mxPoint x="185" y="120" as="targetPoint" />
          </mxGeometry>
        </mxCell>
        <mxCell id="e1-5YqOoS67gZk6BZsD_-48" value="" style="endArrow=none;html=1;rounded=0;exitX=0.5;exitY=0;exitDx=0;exitDy=0;" edge="1" parent="1" source="e1-5YqOoS67gZk6BZsD_-18" target="e1-5YqOoS67gZk6BZsD_-29">
          <mxGeometry width="50" height="50" relative="1" as="geometry">
            <mxPoint x="135" y="170" as="sourcePoint" />
            <mxPoint x="185" y="120" as="targetPoint" />
          </mxGeometry>
        </mxCell>
        <mxCell id="e1-5YqOoS67gZk6BZsD_-49" value="" style="endArrow=none;html=1;rounded=0;exitX=1;exitY=0.25;exitDx=0;exitDy=0;" edge="1" parent="1" source="e1-5YqOoS67gZk6BZsD_-18" target="e1-5YqOoS67gZk6BZsD_-28">
          <mxGeometry width="50" height="50" relative="1" as="geometry">
            <mxPoint x="135" y="170" as="sourcePoint" />
            <mxPoint x="185" y="120" as="targetPoint" />
          </mxGeometry>
        </mxCell>
        <mxCell id="e1-5YqOoS67gZk6BZsD_-50" value="" style="endArrow=none;html=1;rounded=0;exitX=1;exitY=0.25;exitDx=0;exitDy=0;" edge="1" parent="1" source="e1-5YqOoS67gZk6BZsD_-18" target="e1-5YqOoS67gZk6BZsD_-32">
          <mxGeometry width="50" height="50" relative="1" as="geometry">
            <mxPoint x="135" y="170" as="sourcePoint" />
            <mxPoint x="185" y="120" as="targetPoint" />
          </mxGeometry>
        </mxCell>
        <mxCell id="e1-5YqOoS67gZk6BZsD_-23" value="장르" style="ellipse;whiteSpace=wrap;html=1;" vertex="1" parent="1">
          <mxGeometry x="340" y="120" width="80" height="40" as="geometry" />
        </mxCell>
        <mxCell id="e1-5YqOoS67gZk6BZsD_-22" value="영화명" style="ellipse;whiteSpace=wrap;html=1;" vertex="1" parent="1">
          <mxGeometry x="345.75" y="70" width="80" height="40" as="geometry" />
        </mxCell>
        <mxCell id="e1-5YqOoS67gZk6BZsD_-33" value="포스터 이미지 경로" style="ellipse;whiteSpace=wrap;html=1;" vertex="1" parent="1">
          <mxGeometry x="195" y="40" width="100" height="40" as="geometry" />
        </mxCell>
        <mxCell id="e1-5YqOoS67gZk6BZsD_-51" value="" style="endArrow=none;html=1;rounded=0;" edge="1" parent="1" source="e1-5YqOoS67gZk6BZsD_-18" target="e1-5YqOoS67gZk6BZsD_-23">
          <mxGeometry width="50" height="50" relative="1" as="geometry">
            <mxPoint x="135" y="370" as="sourcePoint" />
            <mxPoint x="185" y="320" as="targetPoint" />
          </mxGeometry>
        </mxCell>
        <mxCell id="e1-5YqOoS67gZk6BZsD_-52" value="&lt;u&gt;카테고리 ID&lt;/u&gt;" style="ellipse;whiteSpace=wrap;html=1;" vertex="1" parent="1">
          <mxGeometry x="-571.62" y="494" width="80" height="50" as="geometry" />
        </mxCell>
        <mxCell id="e1-5YqOoS67gZk6BZsD_-53" value="카테고리명" style="ellipse;whiteSpace=wrap;html=1;" vertex="1" parent="1">
          <mxGeometry x="-571.62" y="559" width="80" height="50" as="geometry" />
        </mxCell>
        <mxCell id="e1-5YqOoS67gZk6BZsD_-54" value="설명" style="ellipse;whiteSpace=wrap;html=1;" vertex="1" parent="1">
          <mxGeometry x="-571.62" y="624" width="80" height="50" as="geometry" />
        </mxCell>
        <mxCell id="e1-5YqOoS67gZk6BZsD_-55" value="" style="endArrow=none;html=1;rounded=0;exitX=0;exitY=0.5;exitDx=0;exitDy=0;" edge="1" parent="1" source="e1-5YqOoS67gZk6BZsD_-19" target="e1-5YqOoS67gZk6BZsD_-52">
          <mxGeometry width="50" height="50" relative="1" as="geometry">
            <mxPoint x="-401.62" y="594" as="sourcePoint" />
            <mxPoint x="-151.62" y="674" as="targetPoint" />
          </mxGeometry>
        </mxCell>
        <mxCell id="e1-5YqOoS67gZk6BZsD_-56" value="" style="endArrow=none;html=1;rounded=0;exitX=0;exitY=0.5;exitDx=0;exitDy=0;" edge="1" parent="1" source="e1-5YqOoS67gZk6BZsD_-19" target="e1-5YqOoS67gZk6BZsD_-53">
          <mxGeometry width="50" height="50" relative="1" as="geometry">
            <mxPoint x="-201.62" y="724" as="sourcePoint" />
            <mxPoint x="-151.62" y="674" as="targetPoint" />
          </mxGeometry>
        </mxCell>
        <mxCell id="e1-5YqOoS67gZk6BZsD_-57" value="" style="endArrow=none;html=1;rounded=0;entryX=0;entryY=0.5;entryDx=0;entryDy=0;" edge="1" parent="1" source="e1-5YqOoS67gZk6BZsD_-54" target="e1-5YqOoS67gZk6BZsD_-19">
          <mxGeometry width="50" height="50" relative="1" as="geometry">
            <mxPoint x="-201.62" y="724" as="sourcePoint" />
            <mxPoint x="-151.62" y="674" as="targetPoint" />
          </mxGeometry>
        </mxCell>
        <mxCell id="e1-5YqOoS67gZk6BZsD_-66" value="영화ID" style="ellipse;whiteSpace=wrap;html=1;" vertex="1" parent="1">
          <mxGeometry x="470" y="460" width="80" height="50" as="geometry" />
        </mxCell>
        <mxCell id="e1-5YqOoS67gZk6BZsD_-67" value="예매율&lt;span style=&quot;color: rgba(0, 0, 0, 0); font-family: monospace; font-size: 0px; text-align: start; text-wrap-mode: nowrap;&quot;&gt;%3CmxGraphModel%3E%3Croot%3E%3CmxCell%20id%3D%220%22%2F%3E%3CmxCell%20id%3D%221%22%20parent%3D%220%22%2F%3E%3CmxCell%20id%3D%222%22%20value%3D%22%EC%B9%B4%ED%85%8C%EA%B3%A0%EB%A6%AC%20ID%22%20style%3D%22ellipse%3BwhiteSpace%3Dwrap%3Bhtml%3D1%3B%22%20vertex%3D%221%22%20parent%3D%221%22%3E%3CmxGeometry%20x%3D%2220%22%20y%3D%22220%22%20width%3D%2280%22%20height%3D%2250%22%20as%3D%22geometry%22%2F%3E%3C%2FmxCell%3E%3C%2Froot%3E%3C%2FmxGraphModel%3E&lt;/span&gt;" style="ellipse;whiteSpace=wrap;html=1;" vertex="1" parent="1">
          <mxGeometry x="470" y="515" width="80" height="50" as="geometry" />
        </mxCell>
        <mxCell id="e1-5YqOoS67gZk6BZsD_-68" value="누적 관객수" style="ellipse;whiteSpace=wrap;html=1;" vertex="1" parent="1">
          <mxGeometry x="470" y="570" width="80" height="50" as="geometry" />
        </mxCell>
        <mxCell id="e1-5YqOoS67gZk6BZsD_-69" value="메가 스코어&lt;div&gt;(평점)&lt;/div&gt;" style="ellipse;whiteSpace=wrap;html=1;" vertex="1" parent="1">
          <mxGeometry x="470" y="630" width="80" height="50" as="geometry" />
        </mxCell>
        <mxCell id="e1-5YqOoS67gZk6BZsD_-70" value="업데이트 일시" style="ellipse;whiteSpace=wrap;html=1;" vertex="1" parent="1">
          <mxGeometry x="470" y="690" width="80" height="50" as="geometry" />
        </mxCell>
        <mxCell id="e1-5YqOoS67gZk6BZsD_-71" value="" style="endArrow=none;html=1;rounded=0;exitX=1;exitY=0.5;exitDx=0;exitDy=0;" edge="1" parent="1" source="e1-5YqOoS67gZk6BZsD_-25" target="e1-5YqOoS67gZk6BZsD_-66">
          <mxGeometry width="50" height="50" relative="1" as="geometry">
            <mxPoint x="160" y="510" as="sourcePoint" />
            <mxPoint x="210" y="460" as="targetPoint" />
          </mxGeometry>
        </mxCell>
        <mxCell id="e1-5YqOoS67gZk6BZsD_-72" value="" style="endArrow=none;html=1;rounded=0;exitX=1;exitY=0.5;exitDx=0;exitDy=0;" edge="1" parent="1" source="e1-5YqOoS67gZk6BZsD_-25" target="e1-5YqOoS67gZk6BZsD_-67">
          <mxGeometry width="50" height="50" relative="1" as="geometry">
            <mxPoint x="160" y="510" as="sourcePoint" />
            <mxPoint x="210" y="460" as="targetPoint" />
          </mxGeometry>
        </mxCell>
        <mxCell id="e1-5YqOoS67gZk6BZsD_-73" value="" style="endArrow=none;html=1;rounded=0;exitX=1;exitY=0.5;exitDx=0;exitDy=0;" edge="1" parent="1" source="e1-5YqOoS67gZk6BZsD_-25" target="e1-5YqOoS67gZk6BZsD_-68">
          <mxGeometry width="50" height="50" relative="1" as="geometry">
            <mxPoint x="400" y="640" as="sourcePoint" />
            <mxPoint x="450" y="590" as="targetPoint" />
          </mxGeometry>
        </mxCell>
        <mxCell id="e1-5YqOoS67gZk6BZsD_-74" value="" style="endArrow=none;html=1;rounded=0;exitX=1;exitY=0.5;exitDx=0;exitDy=0;" edge="1" parent="1" source="e1-5YqOoS67gZk6BZsD_-25" target="e1-5YqOoS67gZk6BZsD_-69">
          <mxGeometry width="50" height="50" relative="1" as="geometry">
            <mxPoint x="160" y="510" as="sourcePoint" />
            <mxPoint x="210" y="460" as="targetPoint" />
          </mxGeometry>
        </mxCell>
        <mxCell id="e1-5YqOoS67gZk6BZsD_-75" value="" style="endArrow=none;html=1;rounded=0;exitX=1;exitY=0.5;exitDx=0;exitDy=0;entryX=0;entryY=0.5;entryDx=0;entryDy=0;" edge="1" parent="1" source="e1-5YqOoS67gZk6BZsD_-25" target="e1-5YqOoS67gZk6BZsD_-70">
          <mxGeometry width="50" height="50" relative="1" as="geometry">
            <mxPoint x="160" y="510" as="sourcePoint" />
            <mxPoint x="210" y="460" as="targetPoint" />
          </mxGeometry>
        </mxCell>
        <mxCell id="e1-5YqOoS67gZk6BZsD_-76" value="영화ID" style="ellipse;whiteSpace=wrap;html=1;" vertex="1" parent="1">
          <mxGeometry x="-553" y="80" width="80" height="50" as="geometry" />
        </mxCell>
        <mxCell id="e1-5YqOoS67gZk6BZsD_-77" value="카테고리 ID" style="ellipse;whiteSpace=wrap;html=1;" vertex="1" parent="1">
          <mxGeometry x="-450" y="75" width="80" height="50" as="geometry" />
        </mxCell>
        <mxCell id="e1-5YqOoS67gZk6BZsD_-78" value="" style="endArrow=none;html=1;rounded=0;" edge="1" parent="1" source="e1-5YqOoS67gZk6BZsD_-77" target="e1-5YqOoS67gZk6BZsD_-24">
          <mxGeometry width="50" height="50" relative="1" as="geometry">
            <mxPoint x="-246.5" y="10" as="sourcePoint" />
            <mxPoint x="-196.5" y="-40" as="targetPoint" />
          </mxGeometry>
        </mxCell>
        <mxCell id="e1-5YqOoS67gZk6BZsD_-79" value="" style="endArrow=none;html=1;rounded=0;" edge="1" parent="1" source="e1-5YqOoS67gZk6BZsD_-24" target="e1-5YqOoS67gZk6BZsD_-76">
          <mxGeometry width="50" height="50" relative="1" as="geometry">
            <mxPoint x="-246.5" y="10" as="sourcePoint" />
            <mxPoint x="-196.5" y="-40" as="targetPoint" />
          </mxGeometry>
        </mxCell>
        <mxCell id="e1-5YqOoS67gZk6BZsD_-84" value="리뷰내용" style="ellipse;whiteSpace=wrap;html=1;" vertex="1" parent="1">
          <mxGeometry x="-270.38" y="719" width="80" height="50" as="geometry" />
        </mxCell>
        <mxCell id="e1-5YqOoS67gZk6BZsD_-85" value="상태" style="ellipse;whiteSpace=wrap;html=1;" vertex="1" parent="1">
          <mxGeometry x="-164.88" y="719" width="80" height="50" as="geometry" />
        </mxCell>
        <mxCell id="e1-5YqOoS67gZk6BZsD_-86" value="작성일" style="ellipse;whiteSpace=wrap;html=1;" vertex="1" parent="1">
          <mxGeometry x="-58.879999999999995" y="719" width="80" height="50" as="geometry" />
        </mxCell>
        <mxCell id="e1-5YqOoS67gZk6BZsD_-87" value="수정일" style="ellipse;whiteSpace=wrap;html=1;" vertex="1" parent="1">
          <mxGeometry x="41.120000000000005" y="719" width="80" height="50" as="geometry" />
        </mxCell>
        <mxCell id="e1-5YqOoS67gZk6BZsD_-88" value="" style="endArrow=none;html=1;rounded=0;entryX=0.5;entryY=1;entryDx=0;entryDy=0;exitX=0.5;exitY=0;exitDx=0;exitDy=0;" edge="1" parent="1" source="e1-5YqOoS67gZk6BZsD_-80" target="e1-5YqOoS67gZk6BZsD_-20">
          <mxGeometry width="50" height="50" relative="1" as="geometry">
            <mxPoint x="-224.63" y="519" as="sourcePoint" />
            <mxPoint x="-174.63" y="469" as="targetPoint" />
          </mxGeometry>
        </mxCell>
        <mxCell id="e1-5YqOoS67gZk6BZsD_-89" value="" style="endArrow=none;html=1;rounded=0;entryX=0.5;entryY=1;entryDx=0;entryDy=0;exitX=0.5;exitY=0;exitDx=0;exitDy=0;" edge="1" parent="1" source="e1-5YqOoS67gZk6BZsD_-81" target="e1-5YqOoS67gZk6BZsD_-20">
          <mxGeometry width="50" height="50" relative="1" as="geometry">
            <mxPoint x="-224.63" y="519" as="sourcePoint" />
            <mxPoint x="-174.63" y="469" as="targetPoint" />
          </mxGeometry>
        </mxCell>
        <mxCell id="e1-5YqOoS67gZk6BZsD_-90" value="" style="endArrow=none;html=1;rounded=0;entryX=0.5;entryY=1;entryDx=0;entryDy=0;" edge="1" parent="1" source="e1-5YqOoS67gZk6BZsD_-82" target="e1-5YqOoS67gZk6BZsD_-20">
          <mxGeometry width="50" height="50" relative="1" as="geometry">
            <mxPoint x="-224.63" y="519" as="sourcePoint" />
            <mxPoint x="-174.63" y="469" as="targetPoint" />
          </mxGeometry>
        </mxCell>
        <mxCell id="e1-5YqOoS67gZk6BZsD_-91" value="" style="endArrow=none;html=1;rounded=0;exitX=0.5;exitY=1;exitDx=0;exitDy=0;" edge="1" parent="1" source="e1-5YqOoS67gZk6BZsD_-20" target="e1-5YqOoS67gZk6BZsD_-83">
          <mxGeometry width="50" height="50" relative="1" as="geometry">
            <mxPoint x="-224.63" y="519" as="sourcePoint" />
            <mxPoint x="-174.63" y="469" as="targetPoint" />
          </mxGeometry>
        </mxCell>
        <mxCell id="e1-5YqOoS67gZk6BZsD_-92" value="" style="endArrow=none;html=1;rounded=0;entryX=0.5;entryY=1;entryDx=0;entryDy=0;" edge="1" parent="1" source="e1-5YqOoS67gZk6BZsD_-84" target="e1-5YqOoS67gZk6BZsD_-20">
          <mxGeometry width="50" height="50" relative="1" as="geometry">
            <mxPoint x="-238.63" y="717" as="sourcePoint" />
            <mxPoint x="-174.63" y="569" as="targetPoint" />
          </mxGeometry>
        </mxCell>
        <mxCell id="e1-5YqOoS67gZk6BZsD_-93" value="" style="endArrow=none;html=1;rounded=0;entryX=0.5;entryY=1;entryDx=0;entryDy=0;exitX=0.5;exitY=0;exitDx=0;exitDy=0;" edge="1" parent="1" source="e1-5YqOoS67gZk6BZsD_-85" target="e1-5YqOoS67gZk6BZsD_-20">
          <mxGeometry width="50" height="50" relative="1" as="geometry">
            <mxPoint x="-224.63" y="619" as="sourcePoint" />
            <mxPoint x="-174.63" y="569" as="targetPoint" />
          </mxGeometry>
        </mxCell>
        <mxCell id="e1-5YqOoS67gZk6BZsD_-94" value="" style="endArrow=none;html=1;rounded=0;entryX=0.5;entryY=1;entryDx=0;entryDy=0;" edge="1" parent="1" source="e1-5YqOoS67gZk6BZsD_-86" target="e1-5YqOoS67gZk6BZsD_-20">
          <mxGeometry width="50" height="50" relative="1" as="geometry">
            <mxPoint x="-224.63" y="619" as="sourcePoint" />
            <mxPoint x="-174.63" y="569" as="targetPoint" />
          </mxGeometry>
        </mxCell>
        <mxCell id="e1-5YqOoS67gZk6BZsD_-80" value="&lt;u&gt;리뷰 ID&lt;/u&gt;" style="ellipse;whiteSpace=wrap;html=1;" vertex="1" parent="1">
          <mxGeometry x="-199.63" y="659" width="80" height="50" as="geometry" />
        </mxCell>
        <mxCell id="e1-5YqOoS67gZk6BZsD_-81" value="영화ID" style="ellipse;whiteSpace=wrap;html=1;" vertex="1" parent="1">
          <mxGeometry x="-104.63" y="659" width="80" height="50" as="geometry" />
        </mxCell>
        <mxCell id="e1-5YqOoS67gZk6BZsD_-83" value="평점" style="ellipse;whiteSpace=wrap;html=1;" vertex="1" parent="1">
          <mxGeometry x="90.37" y="659" width="80" height="50" as="geometry" />
        </mxCell>
        <mxCell id="e1-5YqOoS67gZk6BZsD_-97" value="" style="endArrow=none;html=1;rounded=0;entryX=0.5;entryY=1;entryDx=0;entryDy=0;" edge="1" parent="1" source="e1-5YqOoS67gZk6BZsD_-87" target="e1-5YqOoS67gZk6BZsD_-20">
          <mxGeometry width="50" height="50" relative="1" as="geometry">
            <mxPoint x="-224.63" y="619" as="sourcePoint" />
            <mxPoint x="-174.63" y="569" as="targetPoint" />
          </mxGeometry>
        </mxCell>
        <mxCell id="e1-5YqOoS67gZk6BZsD_-82" value="회원ID" style="ellipse;whiteSpace=wrap;html=1;" vertex="1" parent="1">
          <mxGeometry x="-9.629999999999995" y="659" width="80" height="50" as="geometry" />
        </mxCell>
        <mxCell id="e1-5YqOoS67gZk6BZsD_-98" style="edgeStyle=orthogonalEdgeStyle;rounded=0;orthogonalLoop=1;jettySize=auto;html=1;exitX=0.5;exitY=1;exitDx=0;exitDy=0;" edge="1" parent="1" source="e1-5YqOoS67gZk6BZsD_-30" target="e1-5YqOoS67gZk6BZsD_-30">
          <mxGeometry relative="1" as="geometry" />
        </mxCell>
        <mxCell id="e1-5YqOoS67gZk6BZsD_-111" value="" style="edgeStyle=entityRelationEdgeStyle;fontSize=12;html=1;endArrow=ERzeroToMany;endFill=1;rounded=0;" edge="1" parent="1" source="e1-5YqOoS67gZk6BZsD_-18" target="e1-5YqOoS67gZk6BZsD_-24">
          <mxGeometry width="100" height="100" relative="1" as="geometry">
            <mxPoint x="-120" y="450" as="sourcePoint" />
            <mxPoint x="-20" y="350" as="targetPoint" />
          </mxGeometry>
        </mxCell>
        <mxCell id="e1-5YqOoS67gZk6BZsD_-105" value="분류" style="rhombus;whiteSpace=wrap;html=1;" vertex="1" parent="1">
          <mxGeometry x="-215" y="155" width="120" height="70" as="geometry" />
        </mxCell>
        <mxCell id="e1-5YqOoS67gZk6BZsD_-112" value="" style="edgeStyle=entityRelationEdgeStyle;fontSize=12;html=1;endArrow=ERzeroToMany;endFill=1;rounded=0;" edge="1" parent="1" source="e1-5YqOoS67gZk6BZsD_-19" target="e1-5YqOoS67gZk6BZsD_-24">
          <mxGeometry width="100" height="100" relative="1" as="geometry">
            <mxPoint x="-406.5" y="464.9999999999998" as="sourcePoint" />
            <mxPoint x="-406.5" y="200" as="targetPoint" />
          </mxGeometry>
        </mxCell>
        <mxCell id="e1-5YqOoS67gZk6BZsD_-113" value="소속" style="rhombus;whiteSpace=wrap;html=1;" vertex="1" parent="1">
          <mxGeometry x="-370" y="350" width="130" height="80" as="geometry" />
        </mxCell>
        <mxCell id="e1-5YqOoS67gZk6BZsD_-120" value="" style="edgeStyle=entityRelationEdgeStyle;fontSize=12;html=1;endArrow=ERzeroToMany;endFill=1;rounded=0;" edge="1" parent="1" source="e1-5YqOoS67gZk6BZsD_-18" target="e1-5YqOoS67gZk6BZsD_-20">
          <mxGeometry width="100" height="100" relative="1" as="geometry">
            <mxPoint x="360" y="400" as="sourcePoint" />
            <mxPoint x="631" y="770" as="targetPoint" />
          </mxGeometry>
        </mxCell>
        <mxCell id="e1-5YqOoS67gZk6BZsD_-121" value="보유" style="rhombus;whiteSpace=wrap;html=1;" vertex="1" parent="1">
          <mxGeometry y="350" width="100" height="80" as="geometry" />
        </mxCell>
        <mxCell id="e1-5YqOoS67gZk6BZsD_-131" value="1" style="text;html=1;whiteSpace=wrap;strokeColor=none;fillColor=none;align=center;verticalAlign=middle;rounded=0;" vertex="1" parent="1">
          <mxGeometry x="0.36999999999999744" y="290" width="60" height="30" as="geometry" />
        </mxCell>
        <mxCell id="e1-5YqOoS67gZk6BZsD_-132" value="N" style="text;html=1;whiteSpace=wrap;strokeColor=none;fillColor=none;align=center;verticalAlign=middle;rounded=0;" vertex="1" parent="1">
          <mxGeometry x="-30" y="524" width="60" height="30" as="geometry" />
        </mxCell>
        <mxCell id="e1-5YqOoS67gZk6BZsD_-30" value="상영시간" style="ellipse;whiteSpace=wrap;html=1;" vertex="1" parent="1">
          <mxGeometry x="10" y="80" width="80" height="40" as="geometry" />
        </mxCell>
        <mxCell id="e1-5YqOoS67gZk6BZsD_-133" value="1" style="text;html=1;whiteSpace=wrap;strokeColor=none;fillColor=none;align=center;verticalAlign=middle;rounded=0;" vertex="1" parent="1">
          <mxGeometry x="235" y="290" width="60" height="30" as="geometry" />
        </mxCell>
        <mxCell id="e1-5YqOoS67gZk6BZsD_-134" value="1" style="text;html=1;whiteSpace=wrap;strokeColor=none;fillColor=none;align=center;verticalAlign=middle;rounded=0;" vertex="1" parent="1">
          <mxGeometry x="250" y="494" width="60" height="30" as="geometry" />
        </mxCell>
        <mxCell id="e1-5YqOoS67gZk6BZsD_-135" value="1" style="text;html=1;whiteSpace=wrap;strokeColor=none;fillColor=none;align=center;verticalAlign=middle;rounded=0;" vertex="1" parent="1">
          <mxGeometry x="-80" y="190" width="60" height="30" as="geometry" />
        </mxCell>
        <mxCell id="e1-5YqOoS67gZk6BZsD_-136" value="N" style="text;html=1;whiteSpace=wrap;strokeColor=none;fillColor=none;align=center;verticalAlign=middle;rounded=0;" vertex="1" parent="1">
          <mxGeometry x="-350" y="160" width="60" height="30" as="geometry" />
        </mxCell>
        <mxCell id="e1-5YqOoS67gZk6BZsD_-137" value="1" style="text;html=1;whiteSpace=wrap;strokeColor=none;fillColor=none;align=center;verticalAlign=middle;rounded=0;" vertex="1" parent="1">
          <mxGeometry x="-360" y="510" width="60" height="30" as="geometry" />
        </mxCell>
        <mxCell id="e1-5YqOoS67gZk6BZsD_-138" value="N" style="text;html=1;whiteSpace=wrap;strokeColor=none;fillColor=none;align=center;verticalAlign=middle;rounded=0;" vertex="1" parent="1">
          <mxGeometry x="-360" y="270" width="60" height="30" as="geometry" />
        </mxCell>
        <mxCell id="e1-5YqOoS67gZk6BZsD_-139" value="" style="edgeStyle=entityRelationEdgeStyle;fontSize=12;html=1;endArrow=ERzeroToOne;endFill=1;rounded=0;" edge="1" parent="1" source="e1-5YqOoS67gZk6BZsD_-18" target="e1-5YqOoS67gZk6BZsD_-25">
          <mxGeometry width="100" height="100" relative="1" as="geometry">
            <mxPoint x="-110" y="440" as="sourcePoint" />
            <mxPoint x="-10" y="340" as="targetPoint" />
          </mxGeometry>
        </mxCell>
        <mxCell id="e1-5YqOoS67gZk6BZsD_-122" value="통계" style="rhombus;whiteSpace=wrap;html=1;" vertex="1" parent="1">
          <mxGeometry x="195" y="340" width="110" height="80" as="geometry" />
        </mxCell>
      </root>
    </mxGraphModel>
  </diagram>
</mxfile>
